<?xml version="1.0" encoding="utf-8"?>
<!-- Generator: Adobe Illustrator 18.0.0, SVG Export Plug-In . SVG Version: 6.00 Build 0)  -->
<!DOCTYPE svg PUBLIC "-//W3C//DTD SVG 1.1//EN" "http://www.w3.org/Graphics/SVG/1.1/DTD/svg11.dtd">
<svg version="1.1" id="Capa_1" xmlns="http://www.w3.org/2000/svg" xmlns:xlink="http://www.w3.org/1999/xlink" x="0px" y="0px"
	 viewBox="0 0 100 100" enable-background="new 0 0 100 100" xml:space="preserve">
<path fill="#F5F5F5" d="M40.1,16.5c-12.9,0-23.4,10.5-23.4,23.4c0,12.9,10.5,23.4,23.4,23.4c12.9,0,23.4-10.5,23.4-23.4
	C63.6,27,53,16.5,40.1,16.5z M40.1,58.2c-10.1,0-18.2-8.2-18.2-18.2s8.2-18.2,18.2-18.2c10.1,0,18.2,8.2,18.2,18.2
	S50.2,58.2,40.1,58.2z M34.4,27.9c0.9,1.2,0.6,2.8-0.5,3.6c-2.7,2-4.2,5-4.2,8.3c0,1.4-1.2,2.6-2.6,2.6s-2.6-1.2-2.6-2.6
	c0-4.9,2.3-9.6,6.2-12.5C31.9,26.6,33.5,26.8,34.4,27.9z M89.8,77.9L67.2,55.5c2.7-4.6,4.2-9.9,4.2-15.6c0-17.2-14-31.3-31.3-31.3
	c-17.2,0-31.3,14-31.3,31.3c0,17.2,14,31.3,31.3,31.3c5.7,0,11-1.5,15.6-4.2l22.4,22.6c1.6,1.6,3.7,2.4,5.9,2.4
	c2.1,0,4.2-0.8,5.9-2.4C93,86.4,93,81.1,89.8,77.9z M86.5,85.3c-0.1-0.1-0.1-0.3-0.2-0.4L69.9,68.6l1.6-1.6l14.7,14.5
	C87.1,82.6,87.2,84.1,86.5,85.3z M14.1,39.9c0-14.4,11.7-26.1,26.1-26.1c14.4,0,26.1,11.7,26.1,26.1C66.2,54.3,54.5,66,40.1,66
	C25.8,66,14.1,54.3,14.1,39.9z M64.2,59.9l3.5,3.5l-4.2,4.2L60,64C61.6,62.7,62.9,61.4,64.2,59.9z M42.7,26.9c0,1.4-1.2,2.6-2.6,2.6
	c-1.4,0-2.6-1.2-2.6-2.6c0-1.4,1.2-2.6,2.6-2.6C41.6,24.3,42.7,25.5,42.7,26.9z"/>
</svg>
