<?xml version="1.0" encoding="utf-8"?>
<!-- Generator: Adobe Illustrator 18.0.0, SVG Export Plug-In . SVG Version: 6.00 Build 0)  -->
<!DOCTYPE svg PUBLIC "-//W3C//DTD SVG 1.1//EN" "http://www.w3.org/Graphics/SVG/1.1/DTD/svg11.dtd">
<svg version="1.1" id="Capa_1" xmlns="http://www.w3.org/2000/svg" xmlns:xlink="http://www.w3.org/1999/xlink" x="0px" y="0px"
	 viewBox="0 0 100 100" enable-background="new 0 0 100 100" xml:space="preserve">
<path fill="#F5F5F5" stroke="#BCD2DD" stroke-width="5" stroke-miterlimit="10" d="M51.1,71.8L25.4,91.3c-0.9,0.7-2.2-0.2-1.8-1.3
	l10.7-30.4c0.2-0.5,0-1-0.4-1.3L7.4,39.9c-0.9-0.6-0.5-2.1,0.7-2.1l32.3,0.8c0.5,0,1-0.3,1.1-0.8l9.2-30.9c0.3-1.1,1.9-1.1,2.2,0
	l9.2,30.9c0.1,0.5,0.6,0.8,1.1,0.8l32.3-0.8c1.1,0,1.6,1.4,0.7,2.1L69.6,58.3c-0.4,0.3-0.6,0.8-0.4,1.3L79.9,90
	c0.4,1.1-0.9,2-1.8,1.3L52.5,71.8C52,71.4,51.5,71.4,51.1,71.8z"/>
</svg>
